<?xml version="1.0" encoding="UTF-8"?><svg id="Layer_2" xmlns="http://www.w3.org/2000/svg" viewBox="0 0 377.421 84.809"><defs><style>.cls-1{fill:#93014a;}.cls-1,.cls-2,.cls-3{stroke-width:0px;}.cls-2{fill:#ff8000;}.cls-3{fill:#fff;}</style></defs><g id="Layer_1-2"><path class="cls-1" d="m73.942,84.809c-3.072,0-5.96-1.197-8.13-3.367-2.174-2.169-3.369-5.055-3.369-8.129s1.195-5.955,3.363-8.122c2.172-2.172,5.061-3.369,8.132-3.369s5.956,1.193,8.125,3.364c4.482,4.484,4.482,11.779,0,16.261-2.169,2.169-5.053,3.362-8.121,3.362Z"/><path class="cls-1" d="m11.499,23.519c-3.071,0-5.96-1.197-8.132-3.369C1.197,17.981,0,15.095,0,12.023S1.193,6.069,3.362,3.902C5.536,1.727,8.426.531,11.498.531s5.955,1.195,8.122,3.364c2.174,2.172,3.37,5.06,3.37,8.13s-1.196,5.958-3.368,8.131c-2.169,2.169-5.054,3.364-8.122,3.364Z"/><path class="cls-2" d="m73.429,23.182c-3.074,0-5.96-1.197-8.13-3.367-4.48-4.482-4.484-11.773-.007-16.252,2.172-2.172,5.06-3.371,8.134-3.371s5.956,1.196,8.127,3.367c4.48,4.48,4.48,11.775,0,16.263-2.169,2.165-5.056,3.36-8.124,3.36Z"/><path class="cls-1" d="m11.798,84.809c-3.071,0-5.96-1.197-8.134-3.367-2.171-2.171-3.365-5.055-3.363-8.127,0-3.07,1.198-5.956,3.37-8.127.455-.458.967-.876,1.619-1.316.196-.137.377-.245.564-.359.426-.244.849-.467,1.245-.648.215-.096.436-.196.669-.285.413-.153.874-.29,1.401-.415.105-.029.198-.053.292-.08.059-.016.116-.036.176-.05l2.559-.174c.324.014.672.055,1.042.103l.146.02c.087.011.205.02.322.026l.103.007.117.023h.102c.187.007.374.01.559.01,4.411,0,8.765-1.879,11.946-5.151,3.168-3.259,4.913-7.643,4.788-12.03l-.003-.13-.024-.136c-.024-.123-.031-.247-.039-.37-.011-.148-.023-.294-.041-.442l-.029-.258c-.025-.221-.049-.436-.064-.657l.196-2.567c.012-.064.036-.123.053-.185l.046-.158c.118-.486.244-.974.428-1.446.094-.268.185-.466.283-.669.205-.449.417-.857.666-1.275.108-.182.214-.365.339-.543.464-.677.886-1.195,1.325-1.633,2.171-2.171,5.057-3.365,8.132-3.365s5.96,1.193,8.132,3.362c4.477,4.482,4.473,11.776-.01,16.259-.453.454-.967.871-1.621,1.318-.191.13-.372.238-.554.346-.413.247-.83.466-1.244.657-.224.101-.449.205-.666.285-.44.164-.906.303-1.396.413l-.276.077c-.063.018-.123.037-.185.053l-2.584.183c-.303-.012-.62-.053-.956-.096l-.23-.028c-.077-.012-.198-.021-.319-.028l-.091-.009-.132-.025h-.103c-.189-.007-.374-.009-.561-.009-4.411,0-8.763,1.877-11.943,5.149-3.17,3.26-4.915,7.648-4.79,12.036l.003.13.024.13c.024.125.029.248.04.372.01.148.023.294.041.44.005.087.023.246.043.401.019.176.043.347.043.523v.062l-.185,2.461c-.012.052-.094.335-.118.424-.124.531-.265,1.001-.422,1.423-.086.235-.173.438-.274.65-.199.436-.417.855-.663,1.281-.109.174-.236.379-.367.575-.427.62-.851,1.141-1.305,1.597-2.166,2.169-5.052,3.365-8.122,3.365h-.002Z"/><path class="cls-2" d="m42.839,84.809c-3.074,0-5.962-1.197-8.134-3.369-2.171-2.17-3.365-5.055-3.367-8.127-.002-3.068,1.193-5.953,3.362-8.118.443-.445.946-.855,1.633-1.33.17-.116.354-.228.546-.338.422-.253.828-.467,1.25-.661.224-.102.444-.203.667-.287.427-.157.892-.294,1.385-.403,0,0,.405-.117.456-.13l2.599-.19c.307.014.638.059.984.103l.192.025c.128.012.235.023.342.025.043.003.085.003.126.007l.082.011.109.011c.19.005.383.01.573.01,4.402-.002,8.749-1.877,11.923-5.146,3.168-3.257,4.913-7.646,4.788-12.033l-.016-.536-.048-.059c-.002-.018-.002-.039-.004-.059-.007-.125-.014-.251-.027-.377l-.043-.368c-.023-.203-.05-.402-.057-.605l.178-2.488c.014-.061.103-.369.124-.461.146-.595.274-1.029.421-1.416.082-.231.182-.443.283-.666.184-.401.399-.809.663-1.257l.05-.082c.089-.151.174-.301.279-.447.471-.686.889-1.202,1.33-1.643,2.173-2.173,5.062-3.369,8.134-3.369s5.955,1.195,8.125,3.364c4.479,4.48,4.479,11.777,0,16.263-.435.433-.953.851-1.628,1.317-.13.089-.255.164-.379.239l-.201.125c-.385.228-.803.447-1.211.634-.23.103-.447.203-.675.288-.402.152-.846.28-1.405.413-.112.026-.203.055-.292.082-.062.016-.121.035-.182.05l-2.555.176c-.374-.016-.778-.071-1.17-.123-.134-.016-.237-.021-.339-.027-.039-.002-.078-.002-.117-.007l-.218-.023c-.19-.007-.379-.011-.568-.011-4.406,0-8.752,1.877-11.931,5.146-3.166,3.26-4.909,7.646-4.781,12.037l.003.128.025.126c.025.13.03.263.039.393.009.135.019.267.034.397.009.109.025.247.039.383.023.194.047.39.052.584l-.189,2.523c-.014.055-.112.396-.112.396-.123.534-.26,1.002-.422,1.442-.077.207-.168.406-.26.615l-.032.073c-.19.411-.405.817-.643,1.214-.117.196-.233.388-.356.57-.451.653-.875,1.173-1.329,1.631-2.16,2.162-5.041,3.355-8.109,3.355h0Z"/><path class="cls-2" d="m11.802,53.774c-3.072,0-5.959-1.195-8.129-3.364-2.172-2.174-3.368-5.06-3.37-8.132-.002-3.068,1.191-5.951,3.362-8.12.445-.445.963-.865,1.63-1.325.174-.117.37-.237.566-.354.397-.235.803-.451,1.236-.65.222-.102.443-.201.678-.288.422-.155.889-.292,1.375-.401l.292-.082c.054-.016.106-.034.159-.046l2.601-.187c.338.014.703.062,1.086.114l.08.011c.134.014.237.02.342.025.037.002.074.002.112.007l.112.02.105.004c.193.005.383.009.573.009,4.4,0,8.747-1.875,11.923-5.146,3.166-3.26,4.91-7.648,4.783-12.037l-.003-.126-.025-.125c-.027-.139-.03-.28-.039-.422-.007-.116-.014-.232-.027-.352l-.039-.354c-.027-.21-.053-.424-.059-.638l.173-2.414.016-.055v-.048c.014-.055.109-.376.109-.376.146-.618.276-1.065.422-1.458.082-.217.183-.434.286-.659.187-.413.406-.831.659-1.257l.039-.066c.099-.166.198-.331.31-.497.456-.661.875-1.177,1.312-1.613,2.173-2.172,5.061-3.369,8.134-3.369s5.958,1.195,8.13,3.365c4.48,4.482,4.476,11.777-.005,16.258-.444.445-.972.874-1.619,1.312-.176.125-.328.214-.485.306l-.085.05c-.422.251-.837.47-1.229.65-.232.107-.449.205-.669.286-.431.161-.889.296-1.405.415-.109.027-.206.055-.304.082-.059.016-.119.035-.18.05l-2.548.178c-.322-.016-.668-.059-1.03-.105l-.156-.02c-.118-.014-.226-.02-.331-.027-.043-.002-.085-.002-.128-.009l-.086-.011-.112-.009c-.19-.007-.38-.011-.57-.011-4.402,0-8.749,1.875-11.925,5.143-3.168,3.26-4.913,7.65-4.788,12.041l.003.128.023.126c.027.128.032.262.041.392.008.135.019.267.034.402.011.107.027.244.043.38.021.192.046.381.049.571l-.184,2.505c-.014.064-.035.13-.055.198l-.064.224c-.128.561-.263,1.028-.417,1.442-.082.217-.187.442-.292.672-.189.413-.402.821-.652,1.237-.119.199-.23.386-.349.563-.472.684-.878,1.186-1.321,1.625-2.171,2.169-5.053,3.362-8.12,3.362h0Z"/><path class="cls-3" d="m105.2,21.405h33.938v8.562h-11.625v35.312h-10.688V29.967h-11.625v-8.562Z"/><path class="cls-3" d="m160.007,65.78c-10.25,0-17.625-6.875-17.625-17.938s7.25-17.938,17.625-17.938c10.188,0,17.375,6.75,17.375,17.375,0,1-.062,2.062-.188,3.125h-24.188c.375,4.562,3.188,6.688,6.625,6.688,3,0,4.688-1.5,5.562-3.375h11.375c-1.688,6.812-7.875,12.062-16.562,12.062Zm-6.938-21.312h13.375c0-3.812-3-6-6.562-6-3.5,0-6.188,2.125-6.812,6Z"/><path class="cls-3" d="m198.379,29.905c8.75,0,14.938,4.812,16.75,13.125h-11.375c-.875-2.438-2.625-4-5.562-4-3.812,0-6.438,3-6.438,8.812s2.625,8.812,6.438,8.812c2.938,0,4.625-1.438,5.562-4h11.375c-1.812,8.062-8,13.125-16.75,13.125-10.25,0-17.5-6.875-17.5-17.938,0-11,7.25-17.938,17.5-17.938Z"/><path class="cls-3" d="m220.812,19.03h10.688v16.062c2.125-3,5.938-5.062,10.75-5.062,7.938,0,13.25,5.5,13.25,14.875v20.375h-10.625v-18.938c0-4.75-2.625-7.375-6.688-7.375s-6.688,2.625-6.688,7.375v18.938h-10.688V19.03Z"/><path class="cls-3" d="m260.933,21.592h28.688v3.625h-12.125v40.062h-4.375V25.217h-12.188v-3.625Z"/><path class="cls-3" d="m310.865,30.655c6.875,0,11.562,3.688,13.5,8v-7.5h4.375v34.125h-4.375v-7.562c-2,4.375-6.75,8.062-13.562,8.062-9.312,0-16.25-6.938-16.25-17.625s6.938-17.5,16.312-17.5Zm.812,3.812c-7.188,0-12.688,5-12.688,13.688,0,8.625,5.5,13.812,12.688,13.812,7,0,12.688-5.25,12.688-13.75s-5.688-13.75-12.688-13.75Z"/><path class="cls-3" d="m338.735,19.03h4.375v46.25h-4.375V19.03Z"/><path class="cls-3" d="m353.046,19.03h4.375v27.375l13.75-15.25h6.125l-16.188,17,16.312,17.125h-5.938l-14.062-15.312v15.312h-4.375V19.03Z"/></g></svg>